<?xml version="1.0" encoding="UTF-8" standalone="no"?>
<!DOCTYPE svg PUBLIC "-//W3C//DTD SVG 1.1//EN"
 "http://www.w3.org/Graphics/SVG/1.1/DTD/svg11.dtd">
<!-- Generated by graphviz version 9.0.0 (20230911.1827)
 -->
<!-- Pages: 1 -->
<svg width="1068pt" height="404pt"
 viewBox="0.00 0.00 1067.86 404.00" xmlns="http://www.w3.org/2000/svg" xmlns:xlink="http://www.w3.org/1999/xlink">
<g id="graph0" class="graph" transform="scale(1 1) rotate(0) translate(4 400)">
<polygon fill="white" stroke="none" points="-4,4 -4,-400 1063.86,-400 1063.86,4 -4,4"/>
<!-- [root] aws_kms_key.examplekey (expand) -->
<g id="node1" class="node">
<title>[root] aws_kms_key.examplekey (expand)</title>
<polygon fill="none" stroke="black" points="345.56,-180 183.31,-180 183.31,-144 345.56,-144 345.56,-180"/>
<text text-anchor="middle" x="264.43" y="-156.95" font-family="Times,serif" font-size="14.00">aws_kms_key.examplekey</text>
</g>
<!-- [root] provider[&quot;registry.terraform.io/hashicorp/aws&quot;] -->
<g id="node5" class="node">
<title>[root] provider[&quot;registry.terraform.io/hashicorp/aws&quot;]</title>
<polygon fill="none" stroke="black" points="264.43,-108 0,-90 264.43,-72 528.86,-90 264.43,-108"/>
<text text-anchor="middle" x="264.43" y="-84.95" font-family="Times,serif" font-size="14.00">provider[&quot;registry.terraform.io/hashicorp/aws&quot;]</text>
</g>
<!-- [root] aws_kms_key.examplekey (expand)&#45;&gt;[root] provider[&quot;registry.terraform.io/hashicorp/aws&quot;] -->
<g id="edge1" class="edge">
<title>[root] aws_kms_key.examplekey (expand)&#45;&gt;[root] provider[&quot;registry.terraform.io/hashicorp/aws&quot;]</title>
<path fill="none" stroke="black" d="M264.43,-143.7C264.43,-136.41 264.43,-127.73 264.43,-119.54"/>
<polygon fill="black" stroke="black" points="267.93,-119.62 264.43,-109.62 260.93,-119.62 267.93,-119.62"/>
</g>
<!-- [root] aws_s3_bucket.example (expand) -->
<g id="node2" class="node">
<title>[root] aws_s3_bucket.example (expand)</title>
<polygon fill="none" stroke="black" points="512.81,-180 364.06,-180 364.06,-144 512.81,-144 512.81,-180"/>
<text text-anchor="middle" x="438.43" y="-156.95" font-family="Times,serif" font-size="14.00">aws_s3_bucket.example</text>
</g>
<!-- [root] aws_s3_bucket.example (expand)&#45;&gt;[root] provider[&quot;registry.terraform.io/hashicorp/aws&quot;] -->
<g id="edge2" class="edge">
<title>[root] aws_s3_bucket.example (expand)&#45;&gt;[root] provider[&quot;registry.terraform.io/hashicorp/aws&quot;]</title>
<path fill="none" stroke="black" d="M394.97,-143.52C369.67,-133.34 337.75,-120.49 311.8,-110.06"/>
<polygon fill="black" stroke="black" points="313.44,-106.94 302.86,-106.46 310.83,-113.44 313.44,-106.94"/>
</g>
<!-- [root] var.bucket_sse_map -->
<g id="node7" class="node">
<title>[root] var.bucket_sse_map</title>
<polygon fill="none" stroke="black" points="667.56,-108 547.31,-108 547.31,-72 673.56,-72 673.56,-102 667.56,-108"/>
<polyline fill="none" stroke="black" points="667.56,-108 667.56,-102"/>
<polyline fill="none" stroke="black" points="673.56,-102 667.56,-102"/>
<text text-anchor="middle" x="610.43" y="-84.95" font-family="Times,serif" font-size="14.00">var.bucket_sse_map</text>
</g>
<!-- [root] aws_s3_bucket.example (expand)&#45;&gt;[root] var.bucket_sse_map -->
<g id="edge3" class="edge">
<title>[root] aws_s3_bucket.example (expand)&#45;&gt;[root] var.bucket_sse_map</title>
<path fill="none" stroke="black" d="M481.39,-143.52C504.36,-134.17 532.85,-122.57 557.21,-112.66"/>
<polygon fill="black" stroke="black" points="558.38,-115.96 566.32,-108.95 555.74,-109.48 558.38,-115.96"/>
</g>
<!-- [root] aws_s3_bucket_server_side_encryption_configuration.example_sse (expand) -->
<g id="node3" class="node">
<title>[root] aws_s3_bucket_server_side_encryption_configuration.example_sse (expand)</title>
<polygon fill="none" stroke="black" points="474.56,-252 90.31,-252 90.31,-216 474.56,-216 474.56,-252"/>
<text text-anchor="middle" x="282.43" y="-228.95" font-family="Times,serif" font-size="14.00">aws_s3_bucket_server_side_encryption_configuration.example_sse</text>
</g>
<!-- [root] aws_s3_bucket_server_side_encryption_configuration.example_sse (expand)&#45;&gt;[root] aws_kms_key.examplekey (expand) -->
<g id="edge4" class="edge">
<title>[root] aws_s3_bucket_server_side_encryption_configuration.example_sse (expand)&#45;&gt;[root] aws_kms_key.examplekey (expand)</title>
<path fill="none" stroke="black" d="M277.98,-215.7C276.08,-208.32 273.82,-199.52 271.69,-191.25"/>
<polygon fill="black" stroke="black" points="275.09,-190.38 269.21,-181.57 268.31,-192.13 275.09,-190.38"/>
</g>
<!-- [root] aws_s3_bucket_server_side_encryption_configuration.example_sse (expand)&#45;&gt;[root] aws_s3_bucket.example (expand) -->
<g id="edge5" class="edge">
<title>[root] aws_s3_bucket_server_side_encryption_configuration.example_sse (expand)&#45;&gt;[root] aws_s3_bucket.example (expand)</title>
<path fill="none" stroke="black" d="M321.39,-215.52C341.95,-206.29 367.37,-194.89 389.27,-185.06"/>
<polygon fill="black" stroke="black" points="390.62,-188.29 398.31,-181 387.76,-181.9 390.62,-188.29"/>
</g>
<!-- [root] null_resource.upload_objects (expand) -->
<g id="node4" class="node">
<title>[root] null_resource.upload_objects (expand)</title>
<polygon fill="none" stroke="black" points="863.93,-252 688.93,-252 688.93,-216 863.93,-216 863.93,-252"/>
<text text-anchor="middle" x="776.43" y="-228.95" font-family="Times,serif" font-size="14.00">null_resource.upload_objects</text>
</g>
<!-- [root] null_resource.upload_objects (expand)&#45;&gt;[root] aws_s3_bucket.example (expand) -->
<g id="edge6" class="edge">
<title>[root] null_resource.upload_objects (expand)&#45;&gt;[root] aws_s3_bucket.example (expand)</title>
<path fill="none" stroke="black" d="M692.01,-215.52C640.82,-204.92 575.68,-191.43 524.24,-180.77"/>
<polygon fill="black" stroke="black" points="525.14,-177.38 514.64,-178.78 523.72,-184.24 525.14,-177.38"/>
</g>
<!-- [root] provider[&quot;registry.terraform.io/hashicorp/null&quot;] -->
<g id="node6" class="node">
<title>[root] provider[&quot;registry.terraform.io/hashicorp/null&quot;]</title>
<polygon fill="none" stroke="black" points="795.43,-180 531,-162 795.43,-144 1059.86,-162 795.43,-180"/>
<text text-anchor="middle" x="795.43" y="-156.95" font-family="Times,serif" font-size="14.00">provider[&quot;registry.terraform.io/hashicorp/null&quot;]</text>
</g>
<!-- [root] null_resource.upload_objects (expand)&#45;&gt;[root] provider[&quot;registry.terraform.io/hashicorp/null&quot;] -->
<g id="edge7" class="edge">
<title>[root] null_resource.upload_objects (expand)&#45;&gt;[root] provider[&quot;registry.terraform.io/hashicorp/null&quot;]</title>
<path fill="none" stroke="black" d="M781.13,-215.7C783.15,-208.24 785.57,-199.32 787.84,-190.97"/>
<polygon fill="black" stroke="black" points="791.15,-192.13 790.39,-181.57 784.39,-190.3 791.15,-192.13"/>
</g>
<!-- [root] var.target_region -->
<g id="node8" class="node">
<title>[root] var.target_region</title>
<polygon fill="none" stroke="black" points="312.56,-36 210.31,-36 210.31,0 318.56,0 318.56,-30 312.56,-36"/>
<polyline fill="none" stroke="black" points="312.56,-36 312.56,-30"/>
<polyline fill="none" stroke="black" points="318.56,-30 312.56,-30"/>
<text text-anchor="middle" x="264.43" y="-12.95" font-family="Times,serif" font-size="14.00">var.target_region</text>
</g>
<!-- [root] provider[&quot;registry.terraform.io/hashicorp/aws&quot;]&#45;&gt;[root] var.target_region -->
<g id="edge9" class="edge">
<title>[root] provider[&quot;registry.terraform.io/hashicorp/aws&quot;]&#45;&gt;[root] var.target_region</title>
<path fill="none" stroke="black" d="M264.43,-71.7C264.43,-64.41 264.43,-55.73 264.43,-47.54"/>
<polygon fill="black" stroke="black" points="267.93,-47.62 264.43,-37.62 260.93,-47.62 267.93,-47.62"/>
</g>
<!-- [root] provider[&quot;registry.terraform.io/hashicorp/aws&quot;] (close) -->
<g id="node9" class="node">
<title>[root] provider[&quot;registry.terraform.io/hashicorp/aws&quot;] (close)</title>
<ellipse fill="none" stroke="black" cx="282.43" cy="-306" rx="238.16" ry="18"/>
<text text-anchor="middle" x="282.43" y="-300.95" font-family="Times,serif" font-size="14.00">[root] provider[&quot;registry.terraform.io/hashicorp/aws&quot;] (close)</text>
</g>
<!-- [root] provider[&quot;registry.terraform.io/hashicorp/aws&quot;] (close)&#45;&gt;[root] aws_s3_bucket_server_side_encryption_configuration.example_sse (expand) -->
<g id="edge8" class="edge">
<title>[root] provider[&quot;registry.terraform.io/hashicorp/aws&quot;] (close)&#45;&gt;[root] aws_s3_bucket_server_side_encryption_configuration.example_sse (expand)</title>
<path fill="none" stroke="black" d="M282.43,-287.7C282.43,-280.41 282.43,-271.73 282.43,-263.54"/>
<polygon fill="black" stroke="black" points="285.93,-263.62 282.43,-253.62 278.93,-263.62 285.93,-263.62"/>
</g>
<!-- [root] provider[&quot;registry.terraform.io/hashicorp/null&quot;] (close) -->
<g id="node10" class="node">
<title>[root] provider[&quot;registry.terraform.io/hashicorp/null&quot;] (close)</title>
<ellipse fill="none" stroke="black" cx="776.43" cy="-306" rx="238.16" ry="18"/>
<text text-anchor="middle" x="776.43" y="-300.95" font-family="Times,serif" font-size="14.00">[root] provider[&quot;registry.terraform.io/hashicorp/null&quot;] (close)</text>
</g>
<!-- [root] provider[&quot;registry.terraform.io/hashicorp/null&quot;] (close)&#45;&gt;[root] null_resource.upload_objects (expand) -->
<g id="edge10" class="edge">
<title>[root] provider[&quot;registry.terraform.io/hashicorp/null&quot;] (close)&#45;&gt;[root] null_resource.upload_objects (expand)</title>
<path fill="none" stroke="black" d="M776.43,-287.7C776.43,-280.41 776.43,-271.73 776.43,-263.54"/>
<polygon fill="black" stroke="black" points="779.93,-263.62 776.43,-253.62 772.93,-263.62 779.93,-263.62"/>
</g>
<!-- [root] root -->
<g id="node11" class="node">
<title>[root] root</title>
<ellipse fill="none" stroke="black" cx="529.43" cy="-378" rx="49.3" ry="18"/>
<text text-anchor="middle" x="529.43" y="-372.95" font-family="Times,serif" font-size="14.00">[root] root</text>
</g>
<!-- [root] root&#45;&gt;[root] provider[&quot;registry.terraform.io/hashicorp/aws&quot;] (close) -->
<g id="edge11" class="edge">
<title>[root] root&#45;&gt;[root] provider[&quot;registry.terraform.io/hashicorp/aws&quot;] (close)</title>
<path fill="none" stroke="black" d="M491.38,-366.22C454.5,-355.76 397.68,-339.66 352.6,-326.89"/>
<polygon fill="black" stroke="black" points="353.73,-323.57 343.16,-324.21 351.83,-330.3 353.73,-323.57"/>
</g>
<!-- [root] root&#45;&gt;[root] provider[&quot;registry.terraform.io/hashicorp/null&quot;] (close) -->
<g id="edge12" class="edge">
<title>[root] root&#45;&gt;[root] provider[&quot;registry.terraform.io/hashicorp/null&quot;] (close)</title>
<path fill="none" stroke="black" d="M567.48,-366.22C604.36,-355.76 661.18,-339.66 706.26,-326.89"/>
<polygon fill="black" stroke="black" points="707.04,-330.3 715.7,-324.21 705.13,-323.57 707.04,-330.3"/>
</g>
</g>
</svg>
